# xmcd
#
# Track frame offsets:
#  150
#  10275
#  21409
#  34069
#  43820
#  58351
#  71660
#  83080
#  95473
#  107978
#  119685
#  130842
#  144685
#  156849
#  178807
#
# Disc length: 2648 seconds
#
# Revision: 0
# Processed by: cddbd v1.5.2PL0 Copyright (c) Steve Scherf et al.
# Submitted via: Collectorz.com Music Collector 6.9
#
DISCID=df0a560f
DTITLE=Calyx - History Of Country Music [CD2]
DYEAR=2008
DGENRE=Christian Country - Country
TTITLE0=Blue Moon Of Kentucky
TTITLE1=Take Me Back To Tulsa
TTITLE2=Louisiana Man
TTITLE3=Before The Next Teardrop Falls
TTITLE4=Working Man's Blues
TTITLE5=Truck Driving Man
TTITLE6=Silver Threads And Golden Needles
TTITLE7=Bob Wills Is Still The King
TTITLE8=Stand By Your Man
TTITLE9=Is Anybody Going To San Antone
TTITLE10=I Walk The Line
TTITLE11=I Will Always Love You
TTITLE12=The Ballad Of Jed Clampett
TTITLE13=Traveling Soldier
TTITLE14=Happy Trails
EXTD=
EXTT0=
EXTT1=
EXTT2=
EXTT3=
EXTT4=
EXTT5=
EXTT6=
EXTT7=
EXTT8=
EXTT9=
EXTT10=
EXTT11=
EXTT12=
EXTT13=
EXTT14=
PLAYORDER=
